<?xml version="1.0" standalone="no"?>
<!DOCTYPE svg PUBLIC "-//W3C//DTD SVG 20010904//EN"
 "http://www.w3.org/TR/2001/REC-SVG-20010904/DTD/svg10.dtd">
<svg version="1.0" xmlns="http://www.w3.org/2000/svg"
 width="500.000000pt" height="500.000000pt" viewBox="0 0 500.000000 500.000000"
 preserveAspectRatio="xMidYMid meet">

<g transform="translate(0.000000,500.000000) scale(0.100000,-0.100000)"
fill="#000000" stroke="none">
<path d="M2534 3322 c-6 -4 -25 -36 -41 -72 -17 -36 -90 -193 -162 -350 -240
-517 -412 -874 -428 -883 -4 -3 -35 52 -68 121 -32 70 -103 219 -157 331 -54
112 -98 205 -98 207 0 1 -69 144 -154 318 -165 337 -162 332 -232 324 -28 -3
-29 -5 -35 -78 -9 -102 -6 -1547 3 -1555 4 -4 35 -10 70 -12 48 -4 66 -2 76 9
9 11 12 154 14 577 l3 563 27 -54 c39 -78 238 -490 238 -493 0 -2 32 -69 70
-150 39 -81 70 -149 70 -151 0 -2 11 -27 24 -56 14 -29 43 -93 64 -142 44 -98
61 -114 99 -97 23 11 36 33 123 226 94 207 165 340 198 373 41 40 227 136 249
128 10 -4 13 -71 13 -353 0 -191 4 -354 9 -362 10 -15 134 -22 148 -8 4 5 6
176 5 380 -3 302 -1 375 10 390 19 25 76 36 181 37 85 0 88 -1 97 -26 6 -15
10 -176 10 -388 0 -278 3 -366 13 -380 10 -14 25 -16 82 -14 l70 3 5 375 c3
206 7 376 8 378 6 7 38 0 63 -15 34 -20 152 -176 373 -493 87 -124 163 -231
170 -238 9 -9 39 -12 105 -10 l92 3 -104 150 c-57 83 -170 242 -250 355 -81
113 -147 210 -147 217 0 6 17 17 38 24 131 42 231 128 289 248 31 64 37 87 41
167 7 144 -32 248 -133 350 -65 65 -136 105 -223 123 -74 15 -464 15 -480 -1
-9 -9 -12 -99 -12 -345 0 -306 -1 -333 -17 -341 -10 -6 -74 -11 -143 -13
l-125 -4 -8 345 c-4 190 -9 351 -12 358 -5 13 -102 17 -121 4z m944 -182 c102
-44 166 -147 166 -265 0 -160 -125 -292 -287 -303 -72 -6 -192 14 -212 35 -13
12 -15 59 -15 277 0 196 3 265 13 275 9 10 44 12 148 8 110 -4 145 -9 187 -27z
m-978 -438 c0 -117 -2 -131 -20 -147 -23 -20 -151 -77 -158 -70 -3 2 7 28 21
57 114 238 139 288 148 288 5 0 9 -55 9 -128z"/>
<path d="M4052 1853 c-17 -6 -42 -57 -42 -83 0 -81 101 -130 155 -76 67 67 32
167 -57 165 -24 0 -49 -3 -56 -6z"/>
</g>
</svg>
